<svg width="20" height="20" viewBox="0 0 20 20" fill="none" xmlns="http://www.w3.org/2000/svg">
<path d="M10.0086 7.56175C9.71256 7.56175 9.46456 7.46975 9.26456 7.28575C9.07256 7.09375 8.97656 6.85775 8.97656 6.57775C8.97656 6.29775 9.07256 6.06575 9.26456 5.88175C9.46456 5.68975 9.71256 5.59375 10.0086 5.59375C10.3046 5.59375 10.5486 5.68975 10.7406 5.88175C10.9406 6.06575 11.0406 6.29775 11.0406 6.57775C11.0406 6.85775 10.9406 7.09375 10.7406 7.28575C10.5486 7.46975 10.3046 7.56175 10.0086 7.56175ZM10.8366 8.35375V15.0018H9.15656V8.35375H10.8366Z" fill="#9CA3AF"/>
<circle cx="10" cy="10" r="9" stroke="#9CA3AF" stroke-width="2"/>
</svg>
